<?xml version="1.0" encoding="UTF-8"?>
<!DOCTYPE svg PUBLIC "-//W3C//DTD SVG 1.1//EN" "http://www.w3.org/Graphics/SVG/1.1/DTD/svg11.dtd">
<svg xmlns="http://www.w3.org/2000/svg" version="1.1" width="530px" height="490px" style="shape-rendering:geometricPrecision; text-rendering:geometricPrecision; image-rendering:optimizeQuality; fill-rule:evenodd; clip-rule:evenodd" xmlns:xlink="http://www.w3.org/1999/xlink">
<g><path style="opacity:1" fill="#fefefe" d="M -0.5,-0.5 C 176.167,-0.5 352.833,-0.5 529.5,-0.5C 529.5,162.833 529.5,326.167 529.5,489.5C 352.833,489.5 176.167,489.5 -0.5,489.5C -0.5,326.167 -0.5,162.833 -0.5,-0.5 Z"/></g>
<g><path style="opacity:1" fill="#000000" d="M 86.5,110.5 C 113.19,112.479 139.523,116.646 165.5,123C 173.389,126.187 181.389,129.187 189.5,132C 196.618,135.642 203.785,139.142 211,142.5C 249.618,127.848 288.285,127.848 327,142.5C 365.485,121.92 406.652,111.42 450.5,111C 458.001,146.84 456.501,182.34 446,217.5C 441.124,228.251 435.457,238.584 429,248.5C 422.618,255.88 416.618,263.547 411,271.5C 403.049,305.91 409.549,337.077 430.5,365C 427.333,365.252 424.333,365.418 421.5,365.5C 424.985,368.484 428.318,371.651 431.5,375C 422.543,376.141 413.543,376.808 404.5,377C 406.457,378.991 408.457,380.991 410.5,383C 397.44,383.241 384.44,384.241 371.5,386C 344.857,391.313 318.191,396.647 291.5,402C 276.164,405.294 260.83,405.294 245.5,402C 206.667,392.405 167.334,386.072 127.5,383C 129.539,380.626 131.872,378.626 134.5,377C 125.5,376.667 116.5,376.333 107.5,376C 107.167,375.667 106.833,375.333 106.5,375C 109.806,371.694 113.14,368.36 116.5,365C 113.572,365.456 110.572,365.456 107.5,365C 129.074,335.884 134.908,303.718 125,268.5C 95.6753,237.312 81.5086,200.146 82.5,157C 82.7821,141.398 84.1154,125.898 86.5,110.5 Z"/></g>
<g><path style="opacity:1" fill="#fdfdfd" d="M 171.5,235.5 C 210.453,234.039 235.953,251.706 248,288.5C 248.494,290.134 248.66,291.801 248.5,293.5C 226.89,297.066 205.557,295.899 184.5,290C 180.039,287.936 175.706,285.602 171.5,283C 166.794,270.447 163.794,257.447 162.5,244C 162.354,241.966 163.02,240.299 164.5,239C 166.925,237.787 169.259,236.621 171.5,235.5 Z"/></g>
<g><path style="opacity:1" fill="#fdfdfd" d="M 348.5,235.5 C 354.176,235.334 359.843,235.501 365.5,236C 368.624,236.479 371.457,237.646 374,239.5C 374.638,252.788 372.971,265.788 369,278.5C 364.345,284.756 358.178,288.922 350.5,291C 330.405,296.345 310.239,296.845 290,292.5C 297.143,260.857 316.643,241.857 348.5,235.5 Z"/></g>
<g><path style="opacity:1" fill="#f9f9f9" d="M 263.5,329.5 C 268.552,329.45 273.552,329.95 278.5,331C 279.833,332 281.167,333 282.5,334C 273.852,347.717 265.185,347.883 256.5,334.5C 256.833,333.833 257.167,333.167 257.5,332.5C 259.604,331.481 261.604,330.481 263.5,329.5 Z"/></g>
</svg>
